<svg xmlns="http://www.w3.org/2000/svg" width="32" height="32" viewBox="0 0 32 32">
  <!-- Dark rounded background — ORYNT Black -->
  <rect width="32" height="32" rx="7" fill="#0A0A0F"/>

  <!--
    Mark source bounds: x=96–294, y=413–614 → 198×201px
    Target canvas:  28×28 with 2px padding → fits in (2,2)–(30,30)
    Uniform scale = 28/201 = 0.13930
    Transform chain (applied right-to-left in SVG):
      1. translate(-96, -413)  → move mark origin to (0,0)
      2. scale(0.13930)        → scale down to 28×27.6px
      3. translate(2, 2)       → shift to 2px padding from top-left
  -->
  <g transform="translate(2,2) scale(0.13930) translate(-96,-413)">
    <!-- Outer mark — ORYNT Teal #00C9A7 -->
    <path fill="#00C9A7" d="M192.797 413.719C213.989 412.486 238.634 420.426 255.241 433.528C252.524 435.137 249.752 436.394 246.902 437.747C223.477 423.259 204.27 419.304 176.532 424.391C154.792 428.379 133.142 443.245 121.065 461.856C107.856 482.025 103.254 506.637 108.283 530.216C140.642 510.301 172.822 490.097 204.82 469.608C212.094 465.038 219.312 460.371 226.58 455.791C246.065 443.515 267.121 432.694 287.752 422.388C266.039 461.057 235.861 496.555 208 530.809C199.046 541.985 190.229 553.27 181.553 564.663C174.971 573.136 164.639 584.945 158.923 593.369C162.089 594.744 165.156 595.856 168.392 597.046C173.208 598.658 178.162 599.823 183.191 600.526C207.327 604.032 230.108 598.366 249.611 583.764C268.878 569.268 281.59 547.706 284.946 523.829C287.96 502.334 282.866 477.582 269.714 460.086C271.344 457.08 272.881 454.748 274.768 451.888C285.805 469.877 292.287 481.221 293.779 503.368C295.66 531.283 287.114 556.14 268.784 577.137C252.198 596.214 228.735 607.952 203.522 609.786C176.88 611.587 151.832 603.461 131.77 585.781C111.829 568.244 99.7511 543.445 98.2378 516.934C96.7286 491.48 105.352 466.463 122.224 447.346C141.574 425.535 164.075 415.512 192.797 413.719Z"/>
    <!-- Interior cutout — #0A0A0F to match dark background and reveal the needle shape -->
    <path fill="#0A0A0F" d="M217.354 488.511L218.197 488.798C217.705 490.58 215.695 493.165 214.611 495.075C208.257 506.324 201.747 517.484 195.084 528.551C182.349 549.78 170.008 571.243 158.067 592.928C148.43 589.339 137.582 580.229 130.418 573.041C118.231 559.525 113.894 549.008 108.429 532.107C121.87 527.336 133.21 522.493 146.347 517.187L217.354 488.511Z"/>
  </g>
</svg>
