<svg xmlns="http://www.w3.org/2000/svg" width="1024" height="1024" viewBox="0 0 1024 1024">
  <!-- No background — transparent -->

  <!-- ── Mark (compass) — tinted to ORYNT Teal #00C9A7 ── -->
  <path fill="#00C9A7" d="M192.797 413.719C213.989 412.486 238.634 420.426 255.241 433.528C252.524 435.137 249.752 436.394 246.902 437.747C223.477 423.259 204.27 419.304 176.532 424.391C154.792 428.379 133.142 443.245 121.065 461.856C107.856 482.025 103.254 506.637 108.283 530.216C140.642 510.301 172.822 490.097 204.82 469.608C212.094 465.038 219.312 460.371 226.58 455.791C246.065 443.515 267.121 432.694 287.752 422.388C266.039 461.057 235.861 496.555 208 530.809C199.046 541.985 190.229 553.27 181.553 564.663C174.971 573.136 164.639 584.945 158.923 593.369C162.089 594.744 165.156 595.856 168.392 597.046C173.208 598.658 178.162 599.823 183.191 600.526C207.327 604.032 230.108 598.366 249.611 583.764C268.878 569.268 281.59 547.706 284.946 523.829C287.96 502.334 282.866 477.582 269.714 460.086C271.344 457.08 272.881 454.748 274.768 451.888C285.805 469.877 292.287 481.221 293.779 503.368C295.66 531.283 287.114 556.14 268.784 577.137C252.198 596.214 228.735 607.952 203.522 609.786C176.88 611.587 151.832 603.461 131.77 585.781C111.829 568.244 99.7511 543.445 98.2378 516.934C96.7286 491.48 105.352 466.463 122.224 447.346C141.574 425.535 164.075 415.512 192.797 413.719Z"/>
  <!-- Mark interior — matches sidebar surface so it punches through cleanly -->
  <path fill="#111118" d="M217.354 488.511L218.197 488.798C217.705 490.58 215.695 493.165 214.611 495.075C208.257 506.324 201.747 517.484 195.084 528.551C182.349 549.78 170.008 571.243 158.067 592.928C148.43 589.339 137.582 580.229 130.418 573.041C118.231 559.525 113.894 549.008 108.429 532.107C121.87 527.336 133.21 522.493 146.347 517.187L217.354 488.511Z"/>

  <!-- ── Wordmark — ORYNT White #F4F4F6 ── -->
  <!-- O outer -->
  <path fill="#F4F4F6" d="M395.807 462.245C413.366 462.11 435.558 459.921 448.822 472.93C457.372 481.316 459.961 492.752 459.972 504.306C459.988 520.999 461.823 538.59 448.955 551.514C438.33 562.186 425.317 563.042 411.374 563.065C393.113 563.132 371.879 565.517 357.601 552.173C349.287 544.403 345.713 532.624 345.851 521.515C346.057 504.925 343.52 486.283 356.352 473.362C367.061 462.58 381.968 462.406 395.807 462.245Z"/>
  <!-- O inner hole — matches sidebar surface -->
  <path fill="#111118" d="M389.086 477.255C410.208 477.065 444.085 471.233 444.6 501.771C445.01 526.09 448.059 546.865 416.094 547.771C392.096 547.941 361.113 553.952 361.228 520.363C361.307 497.334 358.411 477.702 389.086 477.255Z"/>
  <!-- R -->
  <path fill="#F4F4F6" d="M476.46 462.502L524.279 462.272C530.963 462.27 543.88 461.998 550.088 462.732C553.499 463.147 556.84 464.008 560.026 465.293C578.539 472.792 582.863 493.791 576.363 511.686C573.076 520.734 564.158 525.516 555.611 528.924C562.157 539.323 573.005 553.969 580.552 563.63C574.026 563.521 567.325 563.581 560.784 563.565C553.391 552.556 546.201 542.008 538.942 530.841C524.012 530.613 509.031 530.845 494.08 530.667C494.483 525.501 494.417 524.083 496.908 519.411C509.327 506.093 563.378 530.206 563.506 497.503C563.599 473.761 543.853 477.193 527.324 477.235L491.774 477.335C490.868 502.158 492.982 528.742 491.39 553.612C490.875 561.654 483.311 563.407 476.391 563.581L476.46 462.502Z"/>
  <!-- N -->
  <path fill="#F4F4F6" d="M793.982 462.204C804.819 462.412 809.365 463.313 809.416 475.43C809.52 500.144 809.456 524.861 809.546 549.576C809.556 552.354 809.83 560.62 809.179 562.93C807.488 563.715 805.304 563.429 803.375 563.378L785.909 563.274C779.758 556.473 767.823 539.911 761.84 532.178C746.427 512.598 731.227 492.851 716.243 472.941L716.352 526.278C716.351 535.146 716.653 544.273 715.932 553.096C715.198 562.07 707.804 563.123 700.632 563.584L700.675 462.524L728.403 462.471C744.087 483.975 760.178 505.179 776.664 526.073C780.486 531.012 790.216 544.887 793.994 548.642L793.982 462.204Z"/>
  <!-- T -->
  <path fill="#F4F4F6" d="M818.454 462.506C853.704 462.001 890.352 462.448 925.665 462.453L925.616 477.427L881.926 477.434C881.742 491.574 881.906 506.079 881.901 520.25C881.858 528.954 882.022 537.666 881.974 546.372C881.947 551.213 881.804 556.242 878.112 559.888C874.459 563.497 870.669 563.482 865.927 563.538L866.012 477.425C854.139 477.197 841.807 478.201 830.068 477.084C822.094 476.325 818.952 469.507 818.454 462.506Z"/>
  <!-- Y -->
  <path fill="#F4F4F6" d="M581.968 462.335C588.194 462.562 595.006 462.462 601.284 462.481C602.612 464.366 604.047 466.183 605.452 468.012C616.222 482.028 626.636 496.349 637.56 510.245C644.433 502.176 650.654 494.223 657.165 485.869C663.277 478.027 669.549 470.704 675.132 462.447L694.724 462.47C686.999 472.662 678.749 482.785 670.89 492.943C663.217 503.022 653.245 514.723 646.24 524.726C646.106 537.647 646.058 550.569 646.096 563.491L629.972 563.479L629.949 524.54C615.996 504.433 596.988 482.293 581.968 462.335Z"/>
</svg>
